<?xml version="1.0" encoding="utf-8" standalone="no"?>
<!DOCTYPE svg PUBLIC "-//W3C//DTD SVG 1.1//EN"
  "http://www.w3.org/Graphics/SVG/1.1/DTD/svg11.dtd">
<svg xmlns:xlink="http://www.w3.org/1999/xlink" width="864pt" height="500.4pt" viewBox="0 0 864 500.4" xmlns="http://www.w3.org/2000/svg" version="1.1">
 <metadata>
  <rdf:RDF xmlns:dc="http://purl.org/dc/elements/1.1/" xmlns:cc="http://creativecommons.org/ns#" xmlns:rdf="http://www.w3.org/1999/02/22-rdf-syntax-ns#">
   <cc:Work>
    <dc:type rdf:resource="http://purl.org/dc/dcmitype/StillImage"/>
    <dc:description>Two input nodes connect fully to two ReLU hidden nodes, which connect to one sigmoid output. W1 has four weights, b1 two biases, W2 two weights and b2 one bias: nine parameters.</dc:description>
    <dc:format>image/svg+xml</dc:format>
    <dc:creator>
     <cc:Agent>
      <dc:title>Matplotlib v3.10.0, https://matplotlib.org/</dc:title>
     </cc:Agent>
    </dc:creator>
   </cc:Work>
  </rdf:RDF>
 </metadata>
 <defs>
  <style type="text/css">*{stroke-linejoin: round; stroke-linecap: butt}</style>
 </defs>
 <g id="figure_1">
  <g id="patch_1">
   <path d="M 0 500.4
L 864 500.4
L 864 0
L 0 0
z
" style="fill: #f7f7f2"/>
  </g>
  <g id="axes_1">
   <g id="patch_2">
    <path d="M 125.840775 219.6
Q 251.640092 219.6 375.20334 219.6
" clip-path="url(#pbd58908e61)" style="fill: none; stroke: #234c3c; stroke-width: 2; stroke-linecap: round"/>
    <path d="M 368.80334 216.4
L 375.20334 219.6
L 368.80334 222.8
z
" clip-path="url(#pbd58908e61)" style="fill: #234c3c; stroke: #234c3c; stroke-width: 2; stroke-linecap: round"/>
   </g>
   <g id="patch_3">
    <path d="M 125.645768 220.454561
Q 251.638634 280.079353 375.610332 338.74765
" clip-path="url(#pbd58908e61)" style="fill: none; stroke: #234c3c; stroke-width: 2; stroke-linecap: round"/>
    <path d="M 371.194241 333.117541
L 375.610332 338.74765
L 368.45659 338.902458
z
" clip-path="url(#pbd58908e61)" style="fill: #234c3c; stroke: #234c3c; stroke-width: 2; stroke-linecap: round"/>
   </g>
   <g id="patch_4">
    <path d="M 125.645768 339.705439
Q 251.638634 280.080647 375.610332 221.41235
" clip-path="url(#pbd58908e61)" style="fill: none; stroke: #234c3c; stroke-width: 2; stroke-linecap: round"/>
    <path d="M 368.45659 221.257542
L 375.610332 221.41235
L 371.194241 227.042459
z
" clip-path="url(#pbd58908e61)" style="fill: #234c3c; stroke: #234c3c; stroke-width: 2; stroke-linecap: round"/>
   </g>
   <g id="patch_5">
    <path d="M 125.840775 340.56
Q 251.640092 340.56 375.20334 340.56
" clip-path="url(#pbd58908e61)" style="fill: none; stroke: #234c3c; stroke-width: 2; stroke-linecap: round"/>
    <path d="M 368.80334 337.36
L 375.20334 340.56
L 368.80334 343.76
z
" clip-path="url(#pbd58908e61)" style="fill: #234c3c; stroke: #234c3c; stroke-width: 2; stroke-linecap: round"/>
   </g>
   <g id="patch_6">
    <path d="M 447.60587 220.126948
Q 556.19836 249.839551 662.634058 278.962023
" clip-path="url(#pbd58908e61)" style="fill: none; stroke: #234c3c; stroke-width: 2; stroke-linecap: round"/>
    <path d="M 657.305492 274.18642
L 662.634058 278.962023
L 655.616437 280.359515
z
" clip-path="url(#pbd58908e61)" style="fill: #234c3c; stroke: #234c3c; stroke-width: 2; stroke-linecap: round"/>
   </g>
   <g id="patch_7">
    <path d="M 447.60587 340.033052
Q 556.19836 310.320449 662.634058 281.197977
" clip-path="url(#pbd58908e61)" style="fill: none; stroke: #234c3c; stroke-width: 2; stroke-linecap: round"/>
    <path d="M 655.616437 279.800485
L 662.634058 281.197977
L 657.305492 285.97358
z
" clip-path="url(#pbd58908e61)" style="fill: #234c3c; stroke: #234c3c; stroke-width: 2; stroke-linecap: round"/>
   </g>
   <g id="patch_8">
    <path d="M 93.6 189.36
C 101.619742 189.36 109.312095 192.546277 114.982909 198.217091
C 120.653723 203.887905 123.84 211.580258 123.84 219.6
C 123.84 227.619742 120.653723 235.312095 114.982909 240.982909
C 109.312095 246.653723 101.619742 249.84 93.6 249.84
C 85.580258 249.84 77.887905 246.653723 72.217091 240.982909
C 66.546277 235.312095 63.36 227.619742 63.36 219.6
C 63.36 211.580258 66.546277 203.887905 72.217091 198.217091
C 77.887905 192.546277 85.580258 189.36 93.6 189.36
z
" clip-path="url(#pbd58908e61)" style="fill: #eef1e8; stroke: #234c3c; stroke-linejoin: miter"/>
   </g>
   <g id="patch_9">
    <path d="M 93.6 310.32
C 101.619742 310.32 109.312095 313.506277 114.982909 319.177091
C 120.653723 324.847905 123.84 332.540258 123.84 340.56
C 123.84 348.579742 120.653723 356.272095 114.982909 361.942909
C 109.312095 367.613723 101.619742 370.8 93.6 370.8
C 85.580258 370.8 77.887905 367.613723 72.217091 361.942909
C 66.546277 356.272095 63.36 348.579742 63.36 340.56
C 63.36 332.540258 66.546277 324.847905 72.217091 319.177091
C 77.887905 313.506277 85.580258 310.32 93.6 310.32
z
" clip-path="url(#pbd58908e61)" style="fill: #eef1e8; stroke: #234c3c; stroke-linejoin: miter"/>
   </g>
   <g id="patch_10">
    <path d="M 411.84 186.48
C 420.623527 186.48 429.048485 189.969732 435.259377 196.180623
C 441.470268 202.391515 444.96 210.816473 444.96 219.6
C 444.96 228.383527 441.470268 236.808485 435.259377 243.019377
C 429.048485 249.230268 420.623527 252.72 411.84 252.72
C 403.056473 252.72 394.631515 249.230268 388.420623 243.019377
C 382.209732 236.808485 378.72 228.383527 378.72 219.6
C 378.72 210.816473 382.209732 202.391515 388.420623 196.180623
C 394.631515 189.969732 403.056473 186.48 411.84 186.48
z
" clip-path="url(#pbd58908e61)" style="fill: #eef1e8; stroke: #234c3c; stroke-linejoin: miter"/>
   </g>
   <g id="patch_11">
    <path d="M 411.84 307.44
C 420.623527 307.44 429.048485 310.929732 435.259377 317.140623
C 441.470268 323.351515 444.96 331.776473 444.96 340.56
C 444.96 349.343527 441.470268 357.768485 435.259377 363.979377
C 429.048485 370.190268 420.623527 373.68 411.84 373.68
C 403.056473 373.68 394.631515 370.190268 388.420623 363.979377
C 382.209732 357.768485 378.72 349.343527 378.72 340.56
C 378.72 331.776473 382.209732 323.351515 388.420623 317.140623
C 394.631515 310.929732 403.056473 307.44 411.84 307.44
z
" clip-path="url(#pbd58908e61)" style="fill: #eef1e8; stroke: #234c3c; stroke-linejoin: miter"/>
   </g>
   <g id="patch_12">
    <path d="M 703.44 244.08
C 712.987312 244.08 722.144875 247.873187 728.895844 254.624156
C 735.646813 261.375125 739.44 270.532688 739.44 280.08
C 739.44 289.627312 735.646813 298.784875 728.895844 305.535844
C 722.144875 312.286813 712.987312 316.08 703.44 316.08
C 693.892688 316.08 684.735125 312.286813 677.984156 305.535844
C 671.233187 298.784875 667.44 289.627312 667.44 280.08
C 667.44 270.532688 671.233187 261.375125 677.984156 254.624156
C 684.735125 247.873187 693.892688 244.08 703.44 244.08
z
" clip-path="url(#pbd58908e61)" style="fill: #ddeaab; stroke: #234c3c; stroke-linejoin: miter"/>
   </g>
   <g id="line2d_1">
    <path d="M 30.24 97.92
L 833.76 97.92
" clip-path="url(#pbd58908e61)" style="fill: none; stroke: #bfcac0; stroke-linecap: square"/>
   </g>
   <g id="text_1">
    <text style="font-weight: 700; font-size: 10px; font-family: 'DejaVu Sans'; text-anchor: start; fill: #52645a" x="30.24" y="29.399375" transform="rotate(-0 30.24 29.399375)">DEEP LEARNING LAB  /  FIGURE 1.2.3</text>
   </g>
   <g id="text_2">
    <text style="font-weight: 700; font-size: 24px; font-family: 'DejaVu Sans'; text-anchor: start; fill: #234c3c" x="30.24" y="63.5025" transform="rotate(-0 30.24 63.5025)">The smallest network that shows the mechanism.</text>
   </g>
   <g id="text_3">
    <text style="font-size: 12px; font-family: 'DejaVu Sans'; text-anchor: start; fill: #52645a" x="30.24" y="84.67125" transform="rotate(-0 30.24 84.67125)">Two inputs → two ReLU hidden activations → one sigmoid probability.</text>
   </g>
   <g id="text_4">
    <text style="font-size: 13px; font-family: 'DejaVu Sans'; text-anchor: middle; fill: #234c3c" x="252.72" y="177.107188" transform="rotate(-0 252.72 177.107188)">W₁: all four connections</text>
   </g>
   <g id="text_5">
    <text style="font-size: 12px; font-family: 'DejaVu Sans'; text-anchor: start; fill: #234c3c" x="547.2" y="248.11125" transform="rotate(-0 547.2 248.11125)">W₂[0, 0]</text>
   </g>
   <g id="text_6">
    <text style="font-size: 12px; font-family: 'DejaVu Sans'; text-anchor: start; fill: #234c3c" x="547.2" y="318.67125" transform="rotate(-0 547.2 318.67125)">W₂[1, 0]</text>
   </g>
   <g id="text_7">
    <text style="font-size: 20px; font-family: 'DejaVu Sans'; text-anchor: middle; fill: #202d28" x="93.6" y="225.11875" transform="rotate(-0 93.6 225.11875)">x1</text>
   </g>
   <g id="text_8">
    <text style="font-size: 20px; font-family: 'DejaVu Sans'; text-anchor: middle; fill: #202d28" x="93.6" y="346.07875" transform="rotate(-0 93.6 346.07875)">x2</text>
   </g>
   <g id="text_9">
    <text style="font-size: 20px; font-family: 'DejaVu Sans'; text-anchor: middle; fill: #202d28" x="411.84" y="225.11875" transform="rotate(-0 411.84 225.11875)">a1</text>
   </g>
   <g id="text_10">
    <text style="font-size: 12px; font-family: 'DejaVu Sans'; text-anchor: middle; fill: #52645a" x="411.84" y="279.07125" transform="rotate(-0 411.84 279.07125)">+ b₁[0]</text>
   </g>
   <g id="text_11">
    <text style="font-size: 20px; font-family: 'DejaVu Sans'; text-anchor: middle; fill: #202d28" x="411.84" y="346.07875" transform="rotate(-0 411.84 346.07875)">a2</text>
   </g>
   <g id="text_12">
    <text style="font-size: 12px; font-family: 'DejaVu Sans'; text-anchor: middle; fill: #52645a" x="411.84" y="400.03125" transform="rotate(-0 411.84 400.03125)">+ b₁[1]</text>
   </g>
   <g id="text_13">
    <text style="font-size: 23px; font-family: 'DejaVu Sans'; text-anchor: middle; fill: #202d28" x="703.44" y="286.886563" transform="rotate(-0 703.44 286.886563)">ŷ</text>
   </g>
   <g id="text_14">
    <text style="font-size: 12px; font-family: 'DejaVu Sans'; text-anchor: middle; fill: #52645a" x="703.44" y="345.31125" transform="rotate(-0 703.44 345.31125)">+ b₂[0]</text>
   </g>
   <g id="text_15">
    <text style="font-weight: 700; font-size: 14px; font-family: 'DejaVu Sans'; text-anchor: start; fill: #234c3c" x="30.24" y="438.743125" transform="rotate(-0 30.24 438.743125)">W₁: (2, 2)     b₁: (2,)     W₂: (2, 1)     b₂: (1,)     Total: 9 learned parameters</text>
   </g>
  </g>
 </g>
 <defs>
  <clipPath id="pbd58908e61">
   <rect x="0" y="0" width="864" height="500.4"/>
  </clipPath>
 </defs>
</svg>
